# xmcd CD database file
#
# Track frame offsets:
#	180
#	14029
#	28133
#	42801
#	56119
#	77820
#	91927
#	104995
#	121641
#	138156
#
# Disc length: 2013 seconds
#
# Revision: 1
# Processed by: cddbd v1.5.2PL0 Copyright (c) Steve Scherf et al.
# Submitted via: CDex 1.51
#
DISCID=8407db0a
DTITLE=Lee Greenwood - Lee Greenwood
DYEAR=1998
DGENRE=Country
TTITLE0=Amazing Grace
TTITLE1=Dixie Road
TTITLE2=God Bless The USA
TTITLE3=Hearts Aren't Made To Break
TTITLE4=How Great Thou Art
TTITLE5=I.O.U.
TTITLE6=Oh Holy Night
TTITLE7=Ring On Her Finger, Time On Her Hands
TTITLE8=Somebody Gonna Love You
TTITLE9=Touch And Go Crazy
EXTD=YEAR: 1998
EXTT0=
EXTT1=
EXTT2=
EXTT3=
EXTT4=
EXTT5=
EXTT6=
EXTT7=
EXTT8=
EXTT9=
PLAYORDER=
